{
	"asset":{
		"generator":"Khronos glTF Blender I/O v3.6.27",
		"version":"2.0"
	},
	"scene":0,
	"scenes":[
		{
			"name":"Scene",
			"nodes":[
				0,
				1,
				2
			]
		}
	],
	"nodes":[
		{
			"mesh":0,
			"name":"Bracket.Angle.001",
			"rotation":[
				0,
				-0.923879861831665,
				0,
				0.38268277049064636
			],
			"scale":[
				1.9273029565811157,
				1.9273029565811157,
				1.9273029565811157
			],
			"translation":[
				0.5331910252571106,
				0.08161625266075134,
				-0.3752833902835846
			]
		},
		{
			"mesh":1,
			"name":"Bracket.Angle.002",
			"rotation":[
				0,
				-0.923879861831665,
				0,
				0.38268277049064636
			],
			"scale":[
				1.9273029565811157,
				1.9273029565811157,
				1.9273029565811157
			],
			"translation":[
				0.4928126037120819,
				0.08161622285842896,
				-0.33490511775016785
			]
		},
		{
			"mesh":2,
			"name":"Bracket.Angle.490",
			"rotation":[
				-0.6532809734344482,
				0.27059751749038696,
				0.27059924602508545,
				0.6532817482948303
			],
			"scale":[
				1.9273029565811157,
				1.9273029565811157,
				1.9273029565811157
			],
			"translation":[
				0.5687702894210815,
				0.08354520052671432,
				-0.4080587327480316
			]
		}
	],
	"materials":[
		{
			"doubleSided":true,
			"name":"[Default] Rough Metal.006",
			"pbrMetallicRoughness":{}
		},
		{
			"doubleSided":true,
			"name":"Rough white metal",
			"normalTexture":{
				"index":0
			},
			"pbrMetallicRoughness":{
				"baseColorTexture":{
					"index":1
				},
				"metallicRoughnessTexture":{
					"index":2
				}
			}
		}
	],
	"meshes":[
		{
			"name":"Plane.001",
			"primitives":[
				{
					"attributes":{
						"POSITION":0,
						"NORMAL":1,
						"TEXCOORD_0":2,
						"TEXCOORD_1":3
					},
					"indices":4,
					"material":0
				}
			]
		},
		{
			"name":"Plane.002",
			"primitives":[
				{
					"attributes":{
						"POSITION":5,
						"NORMAL":6,
						"TEXCOORD_0":7,
						"TEXCOORD_1":8
					},
					"indices":9,
					"material":1
				}
			]
		},
		{
			"name":"Plane.858",
			"primitives":[
				{
					"attributes":{
						"POSITION":10,
						"NORMAL":11,
						"TEXCOORD_0":12
					},
					"indices":13,
					"material":1
				}
			]
		}
	],
	"textures":[
		{
			"sampler":0,
			"source":0
		},
		{
			"sampler":0,
			"source":1
		},
		{
			"sampler":0,
			"source":2
		}
	],
	"images":[
		{
			"mimeType":"image/jpeg",
			"name":"DefaultMaterial_Normal",
			"uri":"DefaultMaterial_Normal.jpg"
		},
		{
			"mimeType":"image/jpeg",
			"name":"DefaultMaterial_BaseColor",
			"uri":"DefaultMaterial_BaseColor.jpg"
		},
		{
			"mimeType":"image/png",
			"name":"DefaultMaterial_Roughness",
			"uri":"DefaultMaterial_Roughness.png"
		}
	],
	"accessors":[
		{
			"bufferView":0,
			"componentType":5126,
			"count":1331,
			"max":[
				0.00999806821346283,
				0.0239980760961771,
				0.020998064428567886
			],
			"min":[
				-0.009998071938753128,
				0.0010019310284405947,
				-6.712036260125842e-09
			],
			"type":"VEC3"
		},
		{
			"bufferView":1,
			"componentType":5126,
			"count":1331,
			"type":"VEC3"
		},
		{
			"bufferView":2,
			"componentType":5126,
			"count":1331,
			"type":"VEC2"
		},
		{
			"bufferView":3,
			"componentType":5126,
			"count":1331,
			"type":"VEC2"
		},
		{
			"bufferView":4,
			"componentType":5123,
			"count":7272,
			"type":"SCALAR"
		},
		{
			"bufferView":5,
			"componentType":5126,
			"count":388,
			"max":[
				0.009999997913837433,
				0.024000005796551704,
				0.020999997854232788
			],
			"min":[
				-0.010000001639127731,
				0.0009999974863603711,
				-7.548578651039861e-09
			],
			"type":"VEC3"
		},
		{
			"bufferView":6,
			"componentType":5126,
			"count":388,
			"type":"VEC3"
		},
		{
			"bufferView":7,
			"componentType":5126,
			"count":388,
			"type":"VEC2"
		},
		{
			"bufferView":8,
			"componentType":5126,
			"count":388,
			"type":"VEC2"
		},
		{
			"bufferView":9,
			"componentType":5123,
			"count":1860,
			"type":"SCALAR"
		},
		{
			"bufferView":10,
			"componentType":5126,
			"count":810,
			"max":[
				0.00999755784869194,
				0.023997562006115913,
				0.020997563377022743
			],
			"min":[
				-0.009997560642659664,
				0.0010322353336960077,
				9.767196388565935e-06
			],
			"type":"VEC3"
		},
		{
			"bufferView":11,
			"componentType":5126,
			"count":810,
			"type":"VEC3"
		},
		{
			"bufferView":12,
			"componentType":5126,
			"count":810,
			"type":"VEC2"
		},
		{
			"bufferView":13,
			"componentType":5123,
			"count":4704,
			"type":"SCALAR"
		}
	],
	"bufferViews":[
		{
			"buffer":0,
			"byteLength":15972,
			"byteOffset":0,
			"target":34962
		},
		{
			"buffer":0,
			"byteLength":15972,
			"byteOffset":15972,
			"target":34962
		},
		{
			"buffer":0,
			"byteLength":10648,
			"byteOffset":31944,
			"target":34962
		},
		{
			"buffer":0,
			"byteLength":10648,
			"byteOffset":42592,
			"target":34962
		},
		{
			"buffer":0,
			"byteLength":14544,
			"byteOffset":53240,
			"target":34963
		},
		{
			"buffer":0,
			"byteLength":4656,
			"byteOffset":67784,
			"target":34962
		},
		{
			"buffer":0,
			"byteLength":4656,
			"byteOffset":72440,
			"target":34962
		},
		{
			"buffer":0,
			"byteLength":3104,
			"byteOffset":77096,
			"target":34962
		},
		{
			"buffer":0,
			"byteLength":3104,
			"byteOffset":80200,
			"target":34962
		},
		{
			"buffer":0,
			"byteLength":3720,
			"byteOffset":83304,
			"target":34963
		},
		{
			"buffer":0,
			"byteLength":9720,
			"byteOffset":87024,
			"target":34962
		},
		{
			"buffer":0,
			"byteLength":9720,
			"byteOffset":96744,
			"target":34962
		},
		{
			"buffer":0,
			"byteLength":6480,
			"byteOffset":106464,
			"target":34962
		},
		{
			"buffer":0,
			"byteLength":9408,
			"byteOffset":112944,
			"target":34963
		}
	],
	"samplers":[
		{
			"magFilter":9729,
			"minFilter":9987
		}
	],
	"buffers":[
		{
			"byteLength":122352,
			"uri":"untitled.bin"
		}
	]
}
